<svg xmlns="http://www.w3.org/2000/svg" xmlns:xlink="http://www.w3.org/1999/xlink" width="903.822"
    height="748.215" xmlns:v="https://vecta.io/nano">
    <style>
        <![CDATA[.B{fill:#89e685}.C{opacity:.05}.D{stroke-miterlimit:10}.E{fill:#fda57d}.F{fill:#39447a}]]></style>
    <defs>
        <linearGradient id="A" x1="963.632" y1="410.815" x2="963.632" y2="349.802"
            gradientUnits="userSpaceOnUse">
            <stop offset="0" stop-color="gray" stop-opacity=".25" />
            <stop offset=".535" stop-color="gray" stop-opacity=".12" />
            <stop offset="1" stop-color="gray" stop-opacity=".1" />
        </linearGradient>
        <linearGradient id="B" x1="514.095" y1="824.108" x2="514.095" y2="75.892" xlink:href="#A" />
        <linearGradient id="C" x1="725.679" y1="487.075" x2="725.679" y2="484.075"
            xlink:href="#A" />
        <linearGradient id="D" x1="647.539" y1="341.178" x2="647.539" y2="183.077"
            xlink:href="#A" />
        <path id="E"
            d="M832.232 286.5c-7.142 0-12.932 5.8-12.932 12.932s5.8 12.932 12.932 12.932 12.932-5.8 12.932-12.932a12.93 12.93 0 0 0-12.932-12.932zm0 20.9a7.96 7.96 0 0 1-5.627-13.585 7.96 7.96 0 0 1 13.585 5.627 7.96 7.96 0 0 1-7.958 7.958z" />
        <path id="F"
            d="M216.37 242.055l97.84 92.96h108v-14l-93-27-79.554-98.24s-36.124 22.32-33.285 46.28z" />
        <path id="G"
            d="M230.21 110.112s16 4.123 25-14.062 16-28.104 53-17.358 44.443 12.057 46.222 1.895c1.215-6.944-11.94-23.81-20.396-33.794-4.124-4.87-10.855-7.777-18.048-7.777H274.21l-25 11.572-19 16.532-4 22.318z" />
    </defs>
    <path
        d="M137.273 601.895c0 45.24-26.894 61.037-60.068 61.037-.772 0-1.54-.008-2.304-.03-1.536-.033-3.06-.1-4.563-.21-29.942-2.117-53.204-18.728-53.204-60.8 0-43.535 55.626-98.472 59.822-102.55l.008-.004.242-.238s60.068 57.55 60.068 102.793z"
        fill="#3f3d56" />
    <path
        d="M75.013 656.01l21.972-30.698-22.027 34.067-.058 3.524-4.563-.21 2.35-45.6.042-.067.22-4.275-22.08-34.155 22.148 30.948.054.906 1.79-34.196-18.904-35.3 19.133 29.282 1.87-71.135v.238l-.31 55.906L95.47 533.08 76.575 560.06l-.497 30.618 17.572-29.383-17.647 33.89-.276 17.02 25.508-40.9-25.604 46.842z"
        fill="#f2f2f2" />
    <path
        d="M983.78769,360.69733V349.80222H929.31215V400.1921a10.62275,10.62275,0,0,0,10.62273,10.62273H973.165a10.62275,10.62275,0,0,0,10.62273-10.62273V389.02461a14.16364,14.16364,0,0,0,0-28.32728Zm0,22.87973V366.14489a8.71608,8.71608,0,1,1,0,17.43217Z"
        transform="translate(-149.803 -75.892)" fill="url(#A)" opacity=".7" />
    <use xlink:href="#E" class="B" />
    <use xlink:href="#E" opacity=".1" />
    <path
        d="M782.493 276.563h49.74a0 0 0 0 1 0 0v45.957a9.75 9.75 0 0 1-9.75 9.75h-30.24a9.75 9.75 0 0 1-9.75-9.75v-45.957a0 0 0 0 1 0 0z"
        class="B" />
    <path
        d="M823.28 276.563v46.008a9.7 9.7 0 0 1-9.699 9.699h4.974a9.7 9.7 0 0 0 9.699-9.699v-46.008z"
        opacity=".1" />
    <path
        d="M792.308 239.48c-.86.027-1.666.436-2.197 1.115-.652 1.183.53 2.516 1.61 3.33 1.993 1.5 4.094 2.976 5.45 5.072s1.78 5.02.3 7.03c-1.934 2.622-6.548 3.187-6.994 6.414-.287 2.072 1.505 3.84 3.32 4.88 4.48 2.566 10.256 3.25 13.5 7.267 1.342-2.76 4.345-4.356 7.338-5.038s6.103-.63 9.138-1.093a3.16 3.16 0 0 0 2.521-1.337c.848-1.722-1.57-3.786-.735-5.515.635-1.315 2.5-1.213 3.863-1.74 2.218-.858 3.133-3.713 2.504-6.007s-2.408-4.086-4.278-5.556c-5.04-3.96-11.1-6.3-17.23-7.965-2.85-.78-6.198-2-9.16-2.12-2.86-.114-6.12.78-8.948 1.263z"
        fill="#eee" />
    <path fill="none" stroke="#e0e0e0" stroke-width="8" d="M443.21 344.016l-104 324" class="D" />
    <path
        d="M673.59 780.4c-12.793.742-24.19 11.46-24.19 11.46l-5.51-13.67-.45.146c2.692-11.785 57.466-254.72 2.634-275.663-42.133-16.093-86.824-36.008-121.838-35.26v-57.39h49.09v-2.045h38.862c7.45-5.32-3.375-8.98-15.473-11.267.493-.564.927-1.177 1.297-1.83l62.243-111.67s14.318-23.522 5.113-34.77-22.5 28.635-22.5 28.635l-51.134 73.633s-51.61-53.8-84.44-80.54a57.47 57.47 0 0 0-12.221-9.237c-5.993-4.055-10.53-6.155-12.766-5.332-.023.008-.04.022-.064.03-4.975-1.377-10.114-2.076-15.276-2.077h-4.09v-8.39a65.61 65.61 0 0 0 40.526-38.401c11.69-19.36 13.842-43.016 5.84-64.168a4.26 4.26 0 0 0 1.722-.596c1.852-1.192 2.035-3.8 1.857-5.996-1.364-14.96-10.014-28.284-23.123-35.62-5.182-2.833-11.116-4.786-14.937-9.29-3.283-3.87-4.663-9.28-8.636-12.438-4.72-3.75-11.538-3.106-17.33-1.432a63.06 63.06 0 0 0-18.088 8.536c-6.265 4.29-11.92 9.803-19.13 12.178-5.125 1.688-10.682 1.654-15.84 3.24-8.026 2.543-14.374 8.735-17.117 16.694a34.75 34.75 0 0 0-1.464 13.048 73.22 73.22 0 0 0-7.346 16.712l-1.156.627 1.12-.504a73.62 73.62 0 0 0 20.742 75.089 65.55 65.55 0 0 0 31.45 22.32v10.15c-8.907 1.92-17.404 5.4-25.1 10.28l-.01-.013s-.653.404-1.77 1.155q-.168.113-.335.227c-7.568 5.136-32.926 23.903-32.07 44.183q-.05 1.17.013 2.346c-1.384 5.86-2.085 11.862-2.09 17.883v147.17c-.02 16.262 5.445 32.055 15.51 44.826-21.34 4.783-34.942 12.018-34.942 20.114a6.55 6.55 0 0 1 0 2.045c0 14.403 43.04 26.078 96.132 26.078 6.42 0 12.7-.172 18.757-.498l60 48.564-96.132 154.425s-31.703 24.544-7.16 32.726 74.656 14.318 74.656 14.318 8.18-14.318-3.068-20.454-26.6-3.068-26.6-3.068l2.045-12.272S626.506 642.17 591.734 593.082l-20.014-28.62 26.242 2.39 5.97 224.757.747-.243c-1.5 4.415-12.1 37.74 11.4 32.1 25.158-6.037 70.933-27.332 70.933-27.332s-.628-16.478-13.42-15.737zM573.326 393.66l-49.09-14.252V337.41l53.354 56.637-4.265-.4z"
        transform="translate(-149.803 -75.892)" fill="url(#B)" opacity=".7" />
    <circle cx="292.209" cy="99.016" r="72" />
    <path
        d="M374.21 264.016l54.947 58.33c2.347 2.49 5.74 3.714 9.137 3.292s6.388-2.437 8.054-5.427l60.862-109.194-17-6-50 72s-93.867-97.837-107-93 41 80 41 80z"
        class="B" />
    <path d="M269.2 466.016l-81 210m121-210l81 210" fill="none" stroke="#bdbdbd" stroke-width="5"
        class="D" />
    <ellipse cx="289.209" cy="467.516" rx="94" ry="25.5" fill="#b84733" />
    <ellipse cx="289.209" cy="465.516" rx="94" ry="25.5" fill="#f55f44" />
    <g fill="none" stroke="#bdbdbd" stroke-width="5" class="D">
        <path d="M249.655 512.154l88.7 27.33" />
        <path d="M328.763 512.154l-88.7 27.33" />
    </g>
    <path
        d="M290.304 182.016h27.905a56 56 0 0 1 56 56v148a0 0 0 0 1 0 0h-160a0 0 0 0 1 0 0V258.11a76.095 76.095 0 0 1 76.095-76.095z"
        class="B" />
    <path
        d="M214.21 386.016h160a0 0 0 0 1 0 0v87a0 0 0 0 1 0 0h-89a71 71 0 0 1-71-71v-16a0 0 0 0 1 0 0z"
        class="F" />
    <use xlink:href="#F" class="C" />
    <use xlink:href="#F" y="-2" class="B" />
    <path d="M422.2 319.016s52 4 38 14h-38zm68-114s13-39 22-28-5 34-5 34z" class="E" />
    <path d="M214.21 386.016v4.667l160 .333v-5h-160z" class="C" />
    <path
        d="M338.67 478.56L446.3 488.37l5.84 219.772 38.53-12.544S548.295 446.6 493.345 425.6s-114.348-48.626-149.812-26.102-4.862 79.052-4.862 79.052z"
        class="F" />
    <path d="M345.21 411.016s59 30 67 64" opacity=".1" />
    <path d="M282.2 472.016l84 68-94 151 39 11s163-140 129-188-68-104-110-105-48 63-48 63z"
        class="F" />
    <path d="M414.21 251.016l21 36 5-10-26-26z" class="C" />
    <path
        d="M272.2 691.016s-31 24-7 32 73 14 73 14 8-14-3-20-26-3-26-3l2-12zm180.822 16.414s-13.617 37.764 10.983 31.86 69.36-26.725 69.36-26.725-.615-16.113-13.123-15.387-23.653 11.204-23.653 11.204l-5.4-13.367z"
        fill="#333" />
    <rect x="274.209" y="147.016" width="40" height="60" rx="20" class="E" />
    <path
        d="M294.21 149.016c-11.046 0-20 8.954-20 20v6.795c12.99 4.273 27.01 4.273 40 0v-6.795c0-11.046-8.954-20-20-20z"
        class="C" />
    <circle cx="294.209" cy="113.016" r="64" class="E" />
    <use xlink:href="#G" class="C" />
    <use xlink:href="#G" y="-2" />
    <ellipse cx="236.709" cy="108.016" rx="6.5" ry="13" class="E" />
    <path
        d="M232.063 74.565c-1.483-8.37-2.94-17.162-.24-25.223 2.682-7.783 8.89-13.837 16.737-16.324 5.043-1.55 10.477-1.517 15.488-3.167 7.052-2.322 12.58-7.712 18.707-11.908a61.66 61.66 0 0 1 17.687-8.346c5.663-1.637 12.33-2.267 16.945 1.4 3.885 3.087 5.234 8.38 8.444 12.162 3.736 4.403 9.54 6.312 14.605 9.083 12.818 7.172 21.276 20.202 22.6 34.83.175 2.147-.004 4.697-1.816 5.863-1.125.572-2.393.804-3.647.666-25.58-.366-51.188-.733-76.66-3.08-7.92-.73-15.853-1.652-23.8-1.35-12.3.48-24.31 3.868-35.045 9.888" />
    <rect y="645.267" width="154.086" height="65.568" rx="32.784" class="B" />
    <path d="M725.6791,487.07514a1.5009,1.5009,0,0,0,0-3,1.5009,1.5009,0,0,0,0,3Z"
        transform="translate(-149.803 -75.892)" fill="url(#C)" />
    <path fill="none" stroke="#e0e0e0" stroke-width="8" d="M795.97 344.016l104 370.092" class="D" />
    <path fill="#e0e0e0" d="M338.787 333.178h561.606v21.885H338.787z" />
    <rect x="477.209" y="328.016" width="92" height="13" rx="6.5" fill="#535461" />
    <rect x="533.209" y="183.077" width="228.659" height="158.101" rx="28.22" fill="url(#D)"
        opacity=".7" />
    <rect x="537.286" y="185.994" width="216.609" height="155.184" rx="26.835" fill="#3e3f49" />
    <rect x="540.286" y="185.994" width="216.609" height="155.184" rx="26.835" fill="#535461" />
    <circle cx="658.709" cy="262.516" r="7" fill="#e0e0e0" />
</svg>